HIERARCHY
ROOT joint_Root
{
	OFFSET 0.0 0.0 0.0
	CHANNELS 6 Xposition Yposition Zposition Zrotation Xrotation Yrotation 
	JOINT Hips
	{
		OFFSET 4.5925 91.4895 -427.239
		CHANNELS 6 Xposition Yposition Zposition Zrotation Xrotation Yrotation 
		JOINT Spine
		{
			OFFSET 15.7357 0.0 0.0
			CHANNELS 6 Xposition Yposition Zposition Zrotation Xrotation Yrotation 
			JOINT Chest
			{
				OFFSET 8.98455 -0.406207 0.0
				CHANNELS 6 Xposition Yposition Zposition Zrotation Xrotation Yrotation 
				JOINT Neck
				{
					OFFSET 16.3773 0.0 0.0
					CHANNELS 6 Xposition Yposition Zposition Zrotation Xrotation Yrotation 
					JOINT Head
					{
						OFFSET 6.45672 0.0 0.0
						CHANNELS 6 Xposition Yposition Zposition Zrotation Xrotation Yrotation 
						End Site
						{
							OFFSET 0.0 0.0 0.0
						}
					}
				}
				JOINT Shoulder_L
				{
					OFFSET 12.9942 -0.242716 4.98039
					CHANNELS 6 Xposition Yposition Zposition Zrotation Xrotation Yrotation 
					JOINT UpperArm_L
					{
						OFFSET 5.34809 0.0 0.0
						CHANNELS 6 Xposition Yposition Zposition Zrotation Xrotation Yrotation 
						JOINT LowerArm_L
						{
							OFFSET 24.3286 1.87007e-05 0.0
							CHANNELS 6 Xposition Yposition Zposition Zrotation Xrotation Yrotation 
							JOINT Hand_L
							{
								OFFSET 22.2916 0.0 0.0
								CHANNELS 6 Xposition Yposition Zposition Zrotation Xrotation Yrotation 
								End Site
								{
									OFFSET 0.0 0.0 0.0
								}
							}
						}
					}
				}
				JOINT Shoulder_R
				{
					OFFSET 12.9945 -0.242716 -4.98039
					CHANNELS 6 Xposition Yposition Zposition Zrotation Xrotation Yrotation 
					JOINT UpperArm_R
					{
						OFFSET -5.34813 0.0 0.0
						CHANNELS 6 Xposition Yposition Zposition Zrotation Xrotation Yrotation 
						JOINT LowerArm_R
						{
							OFFSET -24.3289 0.000322201 0.0
							CHANNELS 6 Xposition Yposition Zposition Zrotation Xrotation Yrotation 
							JOINT Hand_R
							{
								OFFSET -22.2915 -0.000108084 0.0
								CHANNELS 6 Xposition Yposition Zposition Zrotation Xrotation Yrotation 
								End Site
								{
									OFFSET 0.0 0.0 0.0
								}
							}
						}
					}
				}
			}
		}
		JOINT UpperLeg_L
		{
			OFFSET -2.19248 -6.46944 0.0
			CHANNELS 6 Xposition Yposition Zposition Zrotation Xrotation Yrotation 
			JOINT LowerLeg_L
			{
				OFFSET 39.0811 0.0 -1.23785e-05
				CHANNELS 6 Xposition Yposition Zposition Zrotation Xrotation Yrotation 
				JOINT Foot_L
				{
					OFFSET 40.9854 0.0 -1.26872e-05
					CHANNELS 6 Xposition Yposition Zposition Zrotation Xrotation Yrotation 
					JOINT Toes_L
					{
						OFFSET 11.7543 0.0 0.0
						CHANNELS 6 Xposition Yposition Zposition Zrotation Xrotation Yrotation 
						End Site
						{
							OFFSET 0.0 0.0 0.0
						}
					}
				}
			}
		}
		JOINT UpperLeg_R
		{
			OFFSET -2.19251 6.46944 0.0
			CHANNELS 6 Xposition Yposition Zposition Zrotation Xrotation Yrotation 
			JOINT LowerLeg_R
			{
				OFFSET -39.0811 -0.00228153 -0.0401928
				CHANNELS 6 Xposition Yposition Zposition Zrotation Xrotation Yrotation 
				JOINT Foot_R
				{
					OFFSET -40.9854 0.0 0.0
					CHANNELS 6 Xposition Yposition Zposition Zrotation Xrotation Yrotation 
					JOINT Toes_R
					{
						OFFSET -11.7543 0.0 0.0
						CHANNELS 6 Xposition Yposition Zposition Zrotation Xrotation Yrotation 
						End Site
						{
							OFFSET 0.0 0.0 0.0
						}
					}
				}
			}
		}
	}
}
MOTION
Frames:	6
Frame Time:	0.0333333
0.000000 0.000000 0.000000 0.000000 0.000000 -0.000000 -1.571830 89.917200 -4.784100 89.601700 -2.750740 10.842500 15.735700 0.000005 -0.000001 89.993500 76.164700 -89.319100 8.984550 -0.406207 -0.000000 19.904500 0.068014 1.341020 16.377300 -0.000001 -0.000001 8.644060 -2.225530 2.402650 6.456720 -0.000001 -0.000000 -7.087860 -2.792160 8.000580 12.994200 -0.242716 4.980390 -89.846300 -0.471942 -71.959100 5.348090 -0.000007 -0.000001 -79.459400 -27.564900 -77.868900 24.328600 0.000019 0.000005 35.570100 -13.598500 -108.199000 22.291600 -0.000001 0.000005 20.350900 4.859050 10.185000 12.994500 -0.242716 -4.980390 89.169100 9.366420 -84.907400 -5.348130 -0.000001 -0.000004 -54.255900 32.534800 -27.461000 -24.328900 0.000322 -0.000009 1.412510 3.611450 -21.392800 -22.291500 -0.000108 -0.000004 16.876600 5.422370 -3.679010 -2.192480 -6.469440 -0.000000 -174.151000 -12.075600 -5.376700 39.081100 -0.000007 -0.000012 -0.208821 0.285199 36.211800 40.985400 -0.000006 -0.000013 -0.592653 4.432850 -69.589500 11.754300 -0.000000 0.000003 -0.000123 -0.001227 -16.624400 -2.192510 6.469440 -0.000001 176.224000 18.254500 175.326000 -39.081100 -0.002282 -0.040193 -0.117650 0.164798 36.273400 -40.985400 0.000008 0.000006 6.116550 10.808200 -71.302900 -11.754300 -0.000006 -0.000006 -0.001998 -0.028695 -17.739900
0.000000 0.000000 0.000000 0.000000 0.000000 -0.000000 -1.581200 89.917400 -4.810920 89.591200 -2.761420 10.820500 15.735700 0.000005 -0.000001 90.028800 76.185200 -89.364000 8.984550 -0.406207 -0.000000 19.863500 0.083367 1.318920 16.377300 -0.000001 -0.000001 8.678280 -2.191640 2.366590 6.456720 -0.000001 -0.000000 -7.058390 -2.778000 7.947680 12.994200 -0.242716 4.980390 -89.816500 -0.564778 -72.002100 5.348090 -0.000007 -0.000001 -79.516000 -27.653400 -77.842500 24.328600 0.000019 0.000005 35.486000 -13.596200 -108.249000 22.291600 -0.000001 0.000005 20.342600 4.862310 10.121400 12.994500 -0.242716 -4.980390 89.184100 9.275640 -84.950900 -5.348130 -0.000001 -0.000004 -54.389200 32.489500 -27.350000 -24.328900 0.000322 -0.000009 1.388360 3.549900 -21.391500 -22.291500 -0.000108 -0.000004 16.830400 5.422760 -3.692340 -2.192480 -6.469440 -0.000000 -174.145000 -12.090900 -5.423350 39.081100 -0.000007 -0.000012 -0.207195 0.282882 36.221100 40.985400 -0.000006 -0.000013 -0.604069 4.396440 -69.571800 11.754300 -0.000000 0.000003 -0.000126 -0.001250 -16.625300 -2.192510 6.469440 -0.000001 176.266000 18.255000 175.279000 -39.081100 -0.002282 -0.040193 -0.114204 0.160072 36.278500 -40.985400 0.000008 0.000006 6.170360 10.772100 -71.297400 -11.754300 -0.000006 -0.000006 -0.001904 -0.027508 -17.691600
0.000000 0.000000 0.000000 0.000000 0.000000 -0.000000 -1.598080 89.923000 -4.832700 89.600300 -2.747630 10.793900 15.735700 0.000005 -0.000001 89.996900 76.197500 -89.356400 8.984550 -0.406207 -0.000000 19.838800 0.065663 1.273310 16.377300 -0.000001 -0.000001 8.732790 -2.164080 2.338600 6.456720 -0.000001 -0.000000 -7.112450 -2.757780 7.947190 12.994200 -0.242716 4.980390 -89.799000 -0.618693 -71.997500 5.348090 -0.000007 -0.000001 -79.594500 -27.721300 -77.943100 24.328600 0.000019 0.000005 35.518900 -13.650100 -108.295000 22.291600 -0.000001 0.000005 20.310600 4.860170 10.163100 12.994500 -0.242716 -4.980390 89.190000 9.228590 -84.961900 -5.348130 -0.000001 -0.000004 -54.441900 32.503700 -27.319700 -24.328900 0.000322 -0.000009 1.418730 3.631670 -21.369800 -22.291500 -0.000108 -0.000004 16.755300 5.422160 -3.671930 -2.192480 -6.469440 -0.000000 -174.147000 -12.092500 -5.462240 39.081100 -0.000007 -0.000012 -0.209629 0.286512 36.191700 40.985400 -0.000006 -0.000013 -0.610147 4.423330 -69.529500 11.754300 -0.000000 0.000003 -0.000124 -0.001234 -16.624700 -2.192510 6.469440 -0.000001 176.292000 18.265000 175.240000 -39.081100 -0.002282 -0.040193 -0.111847 0.156937 36.265300 -40.985400 0.000008 0.000006 6.206390 10.742900 -71.283900 -11.754300 -0.000006 -0.000006 -0.001880 -0.027206 -17.679400
0.000000 0.000000 0.000000 0.000000 0.000000 -0.000000 -1.621340 89.915400 -4.864740 89.593200 -2.749500 10.764700 15.735700 0.000005 -0.000001 90.002000 76.214600 -89.381100 8.984550 -0.406207 -0.000000 19.804800 0.065810 1.233910 16.377300 -0.000001 -0.000001 8.801500 -2.145730 2.302110 6.456720 -0.000001 -0.000000 -7.126380 -2.762520 7.970920 12.994200 -0.242716 4.980390 -89.774700 -0.693548 -72.000100 5.348090 -0.000007 -0.000001 -79.702400 -27.733400 -78.063500 24.328600 0.000019 0.000005 35.387800 -13.631400 -108.355000 22.291600 -0.000001 0.000005 20.469500 4.862270 10.122300 12.994500 -0.242716 -4.980390 89.200100 9.195250 -85.006600 -5.348130 -0.000001 -0.000004 -54.473100 32.536800 -27.255900 -24.328900 0.000322 -0.000009 1.405350 3.598740 -21.362400 -22.291500 -0.000108 -0.000004 16.811200 5.423260 -3.709310 -2.192480 -6.469440 -0.000000 -174.136000 -12.118500 -5.535310 39.081100 -0.000007 -0.000012 -0.203996 0.278389 36.233400 40.985400 -0.000006 -0.000013 -0.610910 4.446160 -69.524500 11.754300 -0.000000 0.000003 -0.000108 -0.001102 -16.619800 -2.192510 6.469440 -0.000001 176.306000 18.280900 175.183000 -39.081100 -0.002282 -0.040193 -0.117615 0.164724 36.277800 -40.985400 0.000008 0.000006 6.049590 10.812600 -71.235700 -11.754300 -0.000006 -0.000006 -0.001893 -0.027369 -17.686000
0.000000 0.000000 0.000000 0.000000 0.000000 -0.000000 -1.633710 89.923900 -4.884740 89.606400 -2.748940 10.733000 15.735700 0.000005 -0.000001 90.006400 76.218600 -89.407000 8.984550 -0.406207 -0.000000 19.796700 0.065592 1.190760 16.377300 -0.000001 -0.000001 8.861630 -2.121550 2.282140 6.456720 -0.000001 -0.000000 -7.149480 -2.775740 7.961560 12.994200 -0.242716 4.980390 -89.755900 -0.751110 -71.997000 5.348090 -0.000007 -0.000001 -79.849000 -27.719600 -78.233300 24.328600 0.000019 0.000005 35.318300 -13.653600 -108.426000 22.291600 -0.000001 0.000005 20.458800 4.862660 10.114600 12.994500 -0.242716 -4.980390 89.205600 9.166230 -85.025700 -5.348130 -0.000001 -0.000004 -54.517100 32.499600 -27.224300 -24.328900 0.000322 -0.000009 1.451720 3.715240 -21.374900 -22.291500 -0.000108 -0.000004 16.779500 5.420600 -3.619360 -2.192480 -6.469440 -0.000000 -174.143000 -12.122900 -5.561530 39.081100 -0.000007 -0.000012 -0.207769 0.284019 36.187000 40.985400 -0.000006 -0.000013 -0.619748 4.463240 -69.482500 11.754300 -0.000000 0.000003 -0.000130 -0.001289 -16.626700 -2.192510 6.469440 -0.000001 176.313000 18.314000 175.148000 -39.081100 -0.002282 -0.040193 -0.120888 0.169330 36.254000 -40.985400 0.000008 0.000006 6.097460 10.821300 -71.220800 -11.754300 -0.000006 -0.000006 -0.001806 -0.026259 -17.640900
0.000000 0.000000 0.000000 0.000000 0.000000 -0.000000 -1.649550 89.930400 -4.906430 89.587300 -2.749090 10.725300 15.735700 0.000005 -0.000001 90.002200 76.222000 -89.415200 8.984550 -0.406207 -0.000000 19.789800 0.062329 1.166740 16.377300 -0.000001 -0.000001 8.947790 -2.108540 2.266160 6.456720 -0.000001 -0.000000 -7.148980 -2.757000 7.972910 12.994200 -0.242716 4.980390 -89.735200 -0.814288 -71.982900 5.348090 -0.000007 -0.000001 -79.866300 -27.669600 -78.308800 24.328600 0.000019 0.000005 35.320600 -13.712200 -108.497000 22.291600 -0.000001 0.000005 20.515900 4.859370 10.178800 12.994500 -0.242716 -4.980390 89.214100 9.148150 -85.068500 -5.348130 -0.000001 -0.000004 -54.577500 32.479500 -27.192100 -24.328900 0.000322 -0.000009 1.424920 3.657530 -21.316700 -22.291500 -0.000108 -0.000004 16.762100 5.422280 -3.676010 -2.192480 -6.469440 -0.000000 -174.124000 -12.083500 -5.570650 39.081100 -0.000007 -0.000012 -0.208593 0.285367 36.165800 40.985400 -0.000006 -0.000013 -0.648117 4.413360 -69.458700 11.754300 -0.000000 0.000003 -0.000118 -0.001187 -16.622900 -2.192510 6.469440 -0.000001 176.359000 18.343300 175.135000 -39.081100 -0.002282 -0.040193 -0.115350 0.161865 36.239300 -40.985400 0.000008 0.000006 6.283580 10.810400 -71.243100 -11.754300 -0.000006 -0.000006 -0.002001 -0.028733 -17.741500
